<mxfile host="app.diagrams.net" agent="Mozilla/5.0 (Windows NT 10.0; Win64; x64) AppleWebKit/537.36 (KHTML, like Gecko) Chrome/131.0.0.0 Safari/537.36" version="25.0.1">
  <diagram name="Trang-1" id="q-peo_z1O_ULDXMnPYah">
    <mxGraphModel dx="1877" dy="522" grid="1" gridSize="10" guides="1" tooltips="1" connect="1" arrows="1" fold="1" page="1" pageScale="1" pageWidth="827" pageHeight="1169" math="0" shadow="0">
      <root>
        <mxCell id="0" />
        <mxCell id="1" parent="0" />
        <mxCell id="LM2q51WNcCwmftncx-CP-3" value="" style="edgeStyle=orthogonalEdgeStyle;rounded=0;orthogonalLoop=1;jettySize=auto;html=1;" parent="1" source="LM2q51WNcCwmftncx-CP-1" edge="1">
          <mxGeometry relative="1" as="geometry">
            <mxPoint x="264" y="170" as="targetPoint" />
          </mxGeometry>
        </mxCell>
        <mxCell id="LM2q51WNcCwmftncx-CP-1" value="Start" style="ellipse;whiteSpace=wrap;html=1;" parent="1" vertex="1">
          <mxGeometry x="204" width="120" height="80" as="geometry" />
        </mxCell>
        <mxCell id="LM2q51WNcCwmftncx-CP-5" value="" style="edgeStyle=orthogonalEdgeStyle;rounded=0;orthogonalLoop=1;jettySize=auto;html=1;" parent="1" target="LM2q51WNcCwmftncx-CP-4" edge="1">
          <mxGeometry relative="1" as="geometry">
            <mxPoint x="264" y="230" as="sourcePoint" />
          </mxGeometry>
        </mxCell>
        <mxCell id="LM2q51WNcCwmftncx-CP-7" value="" style="edgeStyle=orthogonalEdgeStyle;rounded=0;orthogonalLoop=1;jettySize=auto;html=1;" parent="1" source="LM2q51WNcCwmftncx-CP-4" target="LM2q51WNcCwmftncx-CP-6" edge="1">
          <mxGeometry relative="1" as="geometry" />
        </mxCell>
        <mxCell id="LM2q51WNcCwmftncx-CP-10" value="Đúng" style="edgeLabel;html=1;align=center;verticalAlign=middle;resizable=0;points=[];" parent="LM2q51WNcCwmftncx-CP-7" vertex="1" connectable="0">
          <mxGeometry x="-0.03" relative="1" as="geometry">
            <mxPoint as="offset" />
          </mxGeometry>
        </mxCell>
        <mxCell id="LM2q51WNcCwmftncx-CP-12" value="" style="edgeStyle=orthogonalEdgeStyle;rounded=0;orthogonalLoop=1;jettySize=auto;html=1;" parent="1" source="LM2q51WNcCwmftncx-CP-4" target="LM2q51WNcCwmftncx-CP-11" edge="1">
          <mxGeometry relative="1" as="geometry" />
        </mxCell>
        <mxCell id="LM2q51WNcCwmftncx-CP-13" value="Sai" style="edgeLabel;html=1;align=center;verticalAlign=middle;resizable=0;points=[];" parent="LM2q51WNcCwmftncx-CP-12" vertex="1" connectable="0">
          <mxGeometry x="-0.255" y="-1" relative="1" as="geometry">
            <mxPoint as="offset" />
          </mxGeometry>
        </mxCell>
        <mxCell id="LM2q51WNcCwmftncx-CP-4" value="a&amp;gt;b" style="rhombus;whiteSpace=wrap;html=1;" parent="1" vertex="1">
          <mxGeometry x="224" y="300" width="80" height="80" as="geometry" />
        </mxCell>
        <mxCell id="zPhGQuF-VXeVyzgkImjd-2" value="" style="edgeStyle=orthogonalEdgeStyle;rounded=0;orthogonalLoop=1;jettySize=auto;html=1;" parent="1" source="LM2q51WNcCwmftncx-CP-6" target="zPhGQuF-VXeVyzgkImjd-1" edge="1">
          <mxGeometry relative="1" as="geometry" />
        </mxCell>
        <mxCell id="i2eE4XDsgreGbokaCiZQ-1" value="Đúng" style="edgeLabel;html=1;align=center;verticalAlign=middle;resizable=0;points=[];" vertex="1" connectable="0" parent="zPhGQuF-VXeVyzgkImjd-2">
          <mxGeometry x="-0.2267" y="-1" relative="1" as="geometry">
            <mxPoint as="offset" />
          </mxGeometry>
        </mxCell>
        <mxCell id="i2eE4XDsgreGbokaCiZQ-12" value="" style="edgeStyle=orthogonalEdgeStyle;rounded=0;orthogonalLoop=1;jettySize=auto;html=1;" edge="1" parent="1" source="LM2q51WNcCwmftncx-CP-6" target="i2eE4XDsgreGbokaCiZQ-11">
          <mxGeometry relative="1" as="geometry" />
        </mxCell>
        <mxCell id="i2eE4XDsgreGbokaCiZQ-13" value="Sai" style="edgeLabel;html=1;align=center;verticalAlign=middle;resizable=0;points=[];" vertex="1" connectable="0" parent="i2eE4XDsgreGbokaCiZQ-12">
          <mxGeometry x="-0.02" y="1" relative="1" as="geometry">
            <mxPoint as="offset" />
          </mxGeometry>
        </mxCell>
        <mxCell id="LM2q51WNcCwmftncx-CP-6" value="a&amp;gt;c" style="rhombus;whiteSpace=wrap;html=1;" parent="1" vertex="1">
          <mxGeometry x="60" y="300" width="80" height="80" as="geometry" />
        </mxCell>
        <mxCell id="LM2q51WNcCwmftncx-CP-78" value="" style="edgeStyle=orthogonalEdgeStyle;rounded=0;orthogonalLoop=1;jettySize=auto;html=1;" parent="1" source="LM2q51WNcCwmftncx-CP-11" target="LM2q51WNcCwmftncx-CP-77" edge="1">
          <mxGeometry relative="1" as="geometry" />
        </mxCell>
        <mxCell id="LM2q51WNcCwmftncx-CP-79" value="Đúng" style="edgeLabel;html=1;align=center;verticalAlign=middle;resizable=0;points=[];" parent="LM2q51WNcCwmftncx-CP-78" vertex="1" connectable="0">
          <mxGeometry x="-0.1429" y="-3" relative="1" as="geometry">
            <mxPoint as="offset" />
          </mxGeometry>
        </mxCell>
        <mxCell id="i2eE4XDsgreGbokaCiZQ-18" value="" style="edgeStyle=orthogonalEdgeStyle;rounded=0;orthogonalLoop=1;jettySize=auto;html=1;" edge="1" parent="1" source="LM2q51WNcCwmftncx-CP-11" target="i2eE4XDsgreGbokaCiZQ-17">
          <mxGeometry relative="1" as="geometry" />
        </mxCell>
        <mxCell id="i2eE4XDsgreGbokaCiZQ-19" value="Sai" style="edgeLabel;html=1;align=center;verticalAlign=middle;resizable=0;points=[];" vertex="1" connectable="0" parent="i2eE4XDsgreGbokaCiZQ-18">
          <mxGeometry x="-0.4467" y="-1" relative="1" as="geometry">
            <mxPoint as="offset" />
          </mxGeometry>
        </mxCell>
        <mxCell id="LM2q51WNcCwmftncx-CP-11" value="b&amp;gt;c" style="rhombus;whiteSpace=wrap;html=1;" parent="1" vertex="1">
          <mxGeometry x="374" y="300" width="80" height="80" as="geometry" />
        </mxCell>
        <mxCell id="LM2q51WNcCwmftncx-CP-28" value="int a,b,c" style="shape=parallelogram;perimeter=parallelogramPerimeter;whiteSpace=wrap;html=1;fixedSize=1;" parent="1" vertex="1">
          <mxGeometry x="204" y="170" width="120" height="60" as="geometry" />
        </mxCell>
        <mxCell id="LM2q51WNcCwmftncx-CP-36" value="End" style="ellipse;whiteSpace=wrap;html=1;" parent="1" vertex="1">
          <mxGeometry x="204" y="690" width="120" height="80" as="geometry" />
        </mxCell>
        <mxCell id="LM2q51WNcCwmftncx-CP-83" style="edgeStyle=orthogonalEdgeStyle;rounded=0;orthogonalLoop=1;jettySize=auto;html=1;entryX=1;entryY=0.5;entryDx=0;entryDy=0;" parent="1" source="LM2q51WNcCwmftncx-CP-77" target="LM2q51WNcCwmftncx-CP-36" edge="1">
          <mxGeometry relative="1" as="geometry">
            <Array as="points">
              <mxPoint x="414" y="730" />
            </Array>
          </mxGeometry>
        </mxCell>
        <mxCell id="LM2q51WNcCwmftncx-CP-77" value="Số lớn nhất là b" style="whiteSpace=wrap;html=1;" parent="1" vertex="1">
          <mxGeometry x="354" y="470" width="120" height="60" as="geometry" />
        </mxCell>
        <mxCell id="zPhGQuF-VXeVyzgkImjd-4" style="edgeStyle=orthogonalEdgeStyle;rounded=0;orthogonalLoop=1;jettySize=auto;html=1;entryX=0;entryY=0.5;entryDx=0;entryDy=0;" parent="1" source="zPhGQuF-VXeVyzgkImjd-1" target="LM2q51WNcCwmftncx-CP-36" edge="1">
          <mxGeometry relative="1" as="geometry">
            <Array as="points">
              <mxPoint x="100" y="730" />
            </Array>
          </mxGeometry>
        </mxCell>
        <mxCell id="zPhGQuF-VXeVyzgkImjd-1" value="Số lớn nhất là a" style="whiteSpace=wrap;html=1;" parent="1" vertex="1">
          <mxGeometry x="40" y="470" width="120" height="60" as="geometry" />
        </mxCell>
        <mxCell id="i2eE4XDsgreGbokaCiZQ-14" style="edgeStyle=orthogonalEdgeStyle;rounded=0;orthogonalLoop=1;jettySize=auto;html=1;" edge="1" parent="1" source="i2eE4XDsgreGbokaCiZQ-11">
          <mxGeometry relative="1" as="geometry">
            <mxPoint x="100" y="630" as="targetPoint" />
            <Array as="points">
              <mxPoint x="-60" y="630" />
            </Array>
          </mxGeometry>
        </mxCell>
        <mxCell id="i2eE4XDsgreGbokaCiZQ-11" value="Số lớn nhất là c" style="whiteSpace=wrap;html=1;" vertex="1" parent="1">
          <mxGeometry x="-120" y="310" width="120" height="60" as="geometry" />
        </mxCell>
        <mxCell id="i2eE4XDsgreGbokaCiZQ-20" style="edgeStyle=orthogonalEdgeStyle;rounded=0;orthogonalLoop=1;jettySize=auto;html=1;" edge="1" parent="1" source="i2eE4XDsgreGbokaCiZQ-17">
          <mxGeometry relative="1" as="geometry">
            <mxPoint x="420" y="630" as="targetPoint" />
            <Array as="points">
              <mxPoint x="574" y="630" />
            </Array>
          </mxGeometry>
        </mxCell>
        <mxCell id="i2eE4XDsgreGbokaCiZQ-17" value="Số lớn nhất là c" style="whiteSpace=wrap;html=1;" vertex="1" parent="1">
          <mxGeometry x="514" y="310" width="120" height="60" as="geometry" />
        </mxCell>
      </root>
    </mxGraphModel>
  </diagram>
</mxfile>
